<?xml version="1.0" encoding="UTF-8" standalone="no"?>
<!-- Created with Inkscape (http://www.inkscape.org/) -->

<svg
   width="210mm"
   height="297mm"
   viewBox="0 0 210 297"
   version="1.1"
   id="svg5"
   inkscape:version="1.1 (c68e22c387, 2021-05-23)"
   sodipodi:docname="Lift-Legit-Logo.svg"
   xmlns:inkscape="http://www.inkscape.org/namespaces/inkscape"
   xmlns:sodipodi="http://sodipodi.sourceforge.net/DTD/sodipodi-0.dtd"
   xmlns="http://www.w3.org/2000/svg"
   xmlns:svg="http://www.w3.org/2000/svg">
  <sodipodi:namedview
     id="namedview7"
     pagecolor="#ffffff"
     bordercolor="#666666"
     borderopacity="1.0"
     inkscape:pageshadow="2"
     inkscape:pageopacity="0.0"
     inkscape:pagecheckerboard="0"
     inkscape:document-units="mm"
     showgrid="false"
     showguides="false"
     inkscape:snap-global="false"
     inkscape:zoom="0.94237256"
     inkscape:cx="284.38859"
     inkscape:cy="536.41206"
     inkscape:window-width="1920"
     inkscape:window-height="1017"
     inkscape:window-x="1272"
     inkscape:window-y="1072"
     inkscape:window-maximized="1"
     inkscape:current-layer="layer1" />
  <defs
     id="defs2" />
  <g
     inkscape:label="Layer 1"
     inkscape:groupmode="layer"
     id="layer1">
    <text
       xml:space="preserve"
       style="font-style:normal;font-variant:normal;font-weight:normal;font-stretch:normal;font-size:37.6444px;line-height:1.25;font-family:Buckerley;-inkscape-font-specification:Buckerley;stroke-width:0.264583"
       x="43.676468"
       y="82.588234"
       id="text1156"><tspan
         sodipodi:role="line"
         id="tspan1154"
         style="font-style:normal;font-variant:normal;font-weight:normal;font-stretch:normal;font-family:Buckerley;-inkscape-font-specification:Buckerley;stroke-width:0.264583"
         x="43.676468"
         y="82.588234" /></text>
    <text
       xml:space="preserve"
       style="font-style:normal;font-variant:normal;font-weight:normal;font-stretch:normal;font-size:37.6444px;line-height:1.25;font-family:Buckerley;-inkscape-font-specification:Buckerley;stroke-width:0.264583"
       x="35.735294"
       y="65.117645"
       id="text11914"><tspan
         sodipodi:role="line"
         id="tspan11912"
         style="font-style:normal;font-variant:normal;font-weight:normal;font-stretch:normal;font-family:Buckerley;-inkscape-font-specification:Buckerley;stroke-width:0.264583"
         x="35.735294"
         y="65.117645" /></text>
    <path
       d="m 76.407068,126.81282 0.404383,0.0735 -1.433722,4.54012 H 62.437466 v -0.45953 h 0.643337 q 1.029339,0 1.507246,-0.6801 0.257335,-0.40438 0.257335,-1.81972 v -10.78968 q 0,-1.54401 -0.34924,-1.94839 -0.477907,-0.55144 -1.415341,-0.55144 h -0.643337 v -0.45952 h 7.572995 v 0.45952 q -0.680099,0 -1.139626,0.0735 -0.441145,0.0551 -0.735242,0.18381 -0.294097,0.11029 -0.459526,0.27572 -0.16543,0.16542 -0.275716,0.36762 -0.183811,0.36762 -0.183811,1.89325 v 10.49558 q 0,0.86391 0.128668,1.24991 0.128667,0.386 0.514669,0.53305 0.330859,0.11029 1.930011,0.11029 h 1.21315 q 1.930011,0 2.702015,-0.27572 0.386002,-0.12867 0.735242,-0.36762 0.34924,-0.23895 0.680099,-0.62496 0.330859,-0.386 0.643337,-0.93743 0.312478,-0.55143 0.643337,-1.34182 z"
       style="font-size:37.6444px;line-height:1.25;font-family:'Microsoft Himalaya';-inkscape-font-specification:'Microsoft Himalaya, Normal';stroke-width:0.264583"
       id="path55971" />
    <path
       d="m 82.031671,119.80964 v 9.06186 q 0,0.80877 0.0919,1.24991 0.0919,0.42277 0.294097,0.62496 0.220572,0.18381 0.53305,0.22057 0.330859,0.0184 0.790386,0.0184 v 0.44115 h -5.477555 v -0.44115 q 0.569813,0 0.900672,-0.0735 0.34924,-0.0919 0.533051,-0.33086 0.18381,-0.23895 0.220572,-0.64334 0.05514,-0.42276 0.05514,-1.0661 v -4.33793 q 0,-1.0661 -0.03676,-1.69105 -0.03676,-0.62496 -0.128667,-0.91906 -0.0919,-0.31248 -0.275716,-0.386 -0.165429,-0.0919 -0.441145,-0.0919 -0.183811,0 -0.386002,0.0551 -0.183811,0.0368 -0.441146,0.12867 l -0.18381,-0.44115 3.400495,-1.37858 z m -1.029339,-5.90032 q 0.53305,0 0.88229,0.36762 0.367621,0.34924 0.367621,0.88229 0,0.51467 -0.367621,0.88229 -0.34924,0.36763 -0.88229,0.36763 -0.533051,0 -0.900672,-0.36763 -0.34924,-0.36762 -0.34924,-0.88229 0,-0.53305 0.34924,-0.88229 0.367621,-0.36762 0.900672,-0.36762 z"
       style="font-size:37.6444px;line-height:1.25;font-family:'Microsoft Himalaya';-inkscape-font-specification:'Microsoft Himalaya, Normal';stroke-width:0.264583"
       id="path55973" />
    <path
       d="m 89.549522,121.04117 v 7.40757 q 0,0.88229 0.110286,1.39696 0.128667,0.51467 0.330859,0.772 0.220573,0.23896 0.496288,0.31248 0.294097,0.0551 0.624956,0.0551 h 1.010958 v 0.44115 h -6.727466 v -0.44115 h 0.496289 q 0.441145,0 0.735242,-0.11028 0.312478,-0.12867 0.496288,-0.42277 0.202192,-0.29409 0.294097,-0.772 0.0919,-0.49629 0.0919,-1.23153 v -7.40757 h -2.187345 v -0.90067 h 2.187345 v -0.73524 q 0,-1.21315 0.330859,-2.20573 0.330859,-1.01096 0.937434,-1.72782 0.606575,-0.73524 1.470485,-1.12124 0.88229,-0.40439 1.966773,-0.40439 0.477907,0 1.010958,0.16543 0.551431,0.14705 1.010958,0.42277 0.459526,0.27571 0.753623,0.66172 0.312478,0.386 0.312478,0.82714 0,0.36762 -0.312478,0.69848 -0.312478,0.31248 -0.69848,0.31248 -0.147048,0 -0.294097,-0.0368 -0.128667,-0.0368 -0.294097,-0.14705 -0.165429,-0.11029 -0.34924,-0.31248 -0.18381,-0.22057 -0.422764,-0.56981 -0.477908,-0.6801 -0.845529,-0.90067 -0.367621,-0.23896 -0.845528,-0.23896 -0.569813,0 -0.974196,0.31248 -0.386002,0.2941 -0.551432,0.93744 -0.165429,0.60657 -0.165429,3.25344 v 0.80877 h 2.904206 v 0.90067 z"
       style="font-size:37.6444px;line-height:1.25;font-family:'Microsoft Himalaya';-inkscape-font-specification:'Microsoft Himalaya, Normal';stroke-width:0.264583"
       id="path55975" />
    <path
       d="m 96.810039,116.44591 v 3.69459 h 2.628491 v 0.86391 h -2.628491 v 7.31566 q 0,0.55143 0.07352,0.91905 0.09191,0.36762 0.238954,0.56982 0.165429,0.20219 0.367621,0.29409 0.202192,0.0735 0.441145,0.0735 0.422765,0 0.790386,-0.23896 0.386002,-0.25733 0.588193,-0.75362 h 0.477908 q -0.422764,1.21315 -1.21315,1.81972 -0.790385,0.60658 -1.635914,0.60658 -0.974196,0 -1.562389,-0.6801 -0.588194,-0.6801 -0.588194,-2.33439 v -7.59138 H 92.986775 V 120.6 q 1.047721,-0.40439 1.874868,-1.37858 0.845529,-0.99258 1.56239,-2.77554 z"
       style="font-size:37.6444px;line-height:1.25;font-family:'Microsoft Himalaya';-inkscape-font-specification:'Microsoft Himalaya, Normal';stroke-width:0.264583"
       id="path55977" />
    <path
       d="m 120.5216,126.81282 0.40438,0.0735 -1.43372,4.54012 H 106.552 v -0.45953 h 0.64334 q 1.02933,0 1.50724,-0.6801 0.25734,-0.40438 0.25734,-1.81972 v -10.78968 q 0,-1.54401 -0.34924,-1.94839 -0.47791,-0.55144 -1.41534,-0.55144 H 106.552 v -0.45952 h 7.57299 v 0.45952 q -0.6801,0 -1.13962,0.0735 -0.44115,0.0551 -0.73524,0.18381 -0.2941,0.11029 -0.45953,0.27572 -0.16543,0.16542 -0.27572,0.36762 -0.18381,0.36762 -0.18381,1.89325 v 10.49558 q 0,0.86391 0.12867,1.24991 0.12867,0.386 0.51467,0.53305 0.33086,0.11029 1.93001,0.11029 h 1.21315 q 1.93001,0 2.70202,-0.27572 0.386,-0.12867 0.73524,-0.36762 0.34924,-0.23895 0.6801,-0.62496 0.33086,-0.386 0.64333,-0.93743 0.31248,-0.55143 0.64334,-1.34182 z"
       style="font-size:37.6444px;line-height:1.25;font-family:'Microsoft Himalaya';-inkscape-font-specification:'Microsoft Himalaya, Normal';stroke-width:0.264583;fill:#000000"
       id="path55979" />
    <path
       d="m 124.14267,124.38652 q 0,1.2683 0.33086,2.26087 0.34924,0.99258 0.90067,1.69106 0.56981,0.69848 1.30505,1.0661 0.75363,0.36762 1.58077,0.36762 1.10287,0 1.91163,-0.60657 0.82715,-0.60658 1.37858,-2.09544 l 0.38601,0.23895 q -0.12867,0.82715 -0.51467,1.63592 -0.38601,0.79038 -0.99258,1.43372 -0.58819,0.62495 -1.37858,1.01096 -0.79039,0.386 -1.72782,0.386 -1.01096,0 -1.91163,-0.40439 -0.88229,-0.42276 -1.56239,-1.17638 -0.66172,-0.77201 -1.0661,-1.83811 -0.386,-1.08448 -0.386,-2.4263 0,-1.4521 0.40438,-2.59173 0.40438,-1.13962 1.10286,-1.93001 0.69848,-0.79038 1.63592,-1.19477 0.95581,-0.40438 2.05868,-0.40438 0.93743,0 1.72782,0.33086 0.79038,0.31248 1.36019,0.91905 0.5882,0.5882 0.91906,1.43372 0.33086,0.84553 0.33086,1.89325 z m 0,-0.69848 h 5.22022 q -0.0919,-1.56239 -0.75363,-2.27925 -0.64333,-0.73524 -1.69105,-0.73524 -0.49629,0 -0.9742,0.20219 -0.47791,0.20219 -0.86391,0.5882 -0.36762,0.386 -0.62495,0.95581 -0.25734,0.55143 -0.31248,1.26829 z"
       style="font-size:37.6444px;line-height:1.25;font-family:'Microsoft Himalaya';-inkscape-font-specification:'Microsoft Himalaya, Normal';stroke-width:0.264583"
       id="path55981" />
    <path
       d="m 136.45798,127.30911 q -1.04772,-0.51467 -1.59915,-1.39696 -0.55144,-0.90067 -0.55144,-2.00353 0,-0.84553 0.33086,-1.58077 0.34924,-0.75363 0.93744,-1.30506 0.60657,-0.56981 1.43372,-0.88229 0.82715,-0.33086 1.80134,-0.33086 1.61754,0 2.79392,0.79039 h 2.38954 q 0.27572,0 0.42276,0.0184 0.14705,0 0.2022,0.0184 0.0735,0 0.0735,0.0368 0.0184,0.0184 0.0368,0.0551 0.0551,0.0919 0.0551,0.23896 0.0184,0.14705 0.0184,0.34924 0,0.25733 -0.12867,0.33086 -0.11029,0.0551 -0.6801,0.0551 h -1.47048 q 0.69848,0.91905 0.69848,2.27925 0,0.772 -0.31248,1.47048 -0.31248,0.6801 -0.90067,1.21315 -0.56982,0.51467 -1.39696,0.82715 -0.82715,0.2941 -1.83811,0.2941 -0.42276,0 -0.86391,-0.0551 -0.42276,-0.0551 -0.84553,-0.18381 -0.55143,0.4779 -0.73524,0.82714 -0.18381,0.33086 -0.18381,0.5882 0,0.20219 0.0735,0.33086 0.0735,0.12866 0.34924,0.22057 0.27572,0.0919 0.80877,0.14705 0.55143,0.0551 1.48887,0.0735 1.26829,0.0368 2.07706,0.0919 0.82714,0.0551 1.21314,0.0919 1.15801,0.14705 1.81973,0.84553 0.6801,0.6801 0.6801,1.69106 0,0.91905 -0.53305,1.70944 -0.51467,0.80876 -1.39696,1.39696 -0.88229,0.60657 -2.02192,0.95581 -1.13962,0.34924 -2.35277,0.34924 -0.84553,0 -1.72782,-0.18381 -0.88229,-0.18381 -1.59915,-0.49629 -0.71687,-0.31248 -1.17639,-0.75362 -0.44115,-0.42277 -0.44115,-0.91905 0,-0.27572 0.0551,-0.51467 0.0735,-0.23896 0.29409,-0.56982 0.23896,-0.33086 0.6801,-0.82714 0.45953,-0.47791 1.21315,-1.2683 -0.64334,-0.386 -0.90067,-0.6801 -0.25734,-0.31247 -0.25734,-0.69848 0,-0.22057 0.0551,-0.45952 0.0735,-0.23896 0.27571,-0.53305 0.2022,-0.31248 0.5882,-0.71686 0.40438,-0.40439 1.04772,-0.93744 z m -0.12867,4.11736 q -1.15801,1.26829 -1.15801,2.16896 0,0.42277 0.33086,0.75363 0.34924,0.33085 0.91906,0.55143 0.58819,0.23895 1.36019,0.36762 0.77201,0.12867 1.6543,0.12867 1.12124,0 1.93001,-0.22058 0.80877,-0.22057 1.34182,-0.58819 0.53305,-0.34924 0.79038,-0.79039 0.25734,-0.42276 0.25734,-0.86391 0,-0.31247 -0.12867,-0.53305 -0.12867,-0.22057 -0.49629,-0.36762 -0.34924,-0.14705 -0.9742,-0.22057 -0.60657,-0.0735 -1.56238,-0.11029 -2.73878,-0.0551 -4.26441,-0.27571 z m 2.27925,-11.02864 q -0.90067,0 -1.52563,0.73525 -0.62495,0.71686 -0.62495,2.2241 0,0.82715 0.16543,1.54401 0.16543,0.69848 0.4779,1.21315 0.33086,0.51467 0.77201,0.80877 0.45953,0.27572 1.04772,0.27572 0.93743,0 1.54401,-0.69848 0.60657,-0.69849 0.60657,-2.22411 0,-0.82715 -0.16543,-1.52563 -0.16543,-0.71686 -0.4779,-1.23153 -0.31248,-0.53305 -0.77201,-0.82715 -0.45953,-0.2941 -1.04772,-0.2941 z"
       style="font-size:37.6444px;line-height:1.25;font-family:'Microsoft Himalaya';-inkscape-font-specification:'Microsoft Himalaya, Normal';stroke-width:0.264583"
       id="path55983" />
    <path
       d="m 149.94967,119.80964 v 9.06186 q 0,0.80877 0.0919,1.24991 0.0919,0.42277 0.2941,0.62496 0.22057,0.18381 0.53305,0.22057 0.33086,0.0184 0.79038,0.0184 v 0.44115 h -5.47755 v -0.44115 q 0.56981,0 0.90067,-0.0735 0.34924,-0.0919 0.53305,-0.33086 0.18381,-0.23895 0.22057,-0.64334 0.0551,-0.42276 0.0551,-1.0661 v -4.33793 q 0,-1.0661 -0.0368,-1.69105 -0.0368,-0.62496 -0.12867,-0.91906 -0.0919,-0.31248 -0.27572,-0.386 -0.16543,-0.0919 -0.44114,-0.0919 -0.18381,0 -0.386,0.0551 -0.18382,0.0368 -0.44115,0.12867 l -0.18381,-0.44115 3.40049,-1.37858 z m -1.02934,-5.90032 q 0.53305,0 0.88229,0.36762 0.36762,0.34924 0.36762,0.88229 0,0.51467 -0.36762,0.88229 -0.34924,0.36763 -0.88229,0.36763 -0.53305,0 -0.90067,-0.36763 -0.34924,-0.36762 -0.34924,-0.88229 0,-0.53305 0.34924,-0.88229 0.36762,-0.36762 0.90067,-0.36762 z"
       style="font-size:37.6444px;line-height:1.25;font-family:'Microsoft Himalaya';-inkscape-font-specification:'Microsoft Himalaya, Normal';stroke-width:0.264583"
       id="path55985" />
    <path
       d="m 156.3279,116.44591 v 3.69459 h 2.62849 v 0.86391 h -2.62849 v 7.31566 q 0,0.55143 0.0735,0.91905 0.0919,0.36762 0.23896,0.56982 0.16543,0.20219 0.36762,0.29409 0.20219,0.0735 0.44114,0.0735 0.42277,0 0.79039,-0.23896 0.386,-0.25733 0.58819,-0.75362 h 0.47791 q -0.42276,1.21315 -1.21315,1.81972 -0.79038,0.60658 -1.63591,0.60658 -0.9742,0 -1.56239,-0.6801 -0.5882,-0.6801 -0.5882,-2.33439 v -7.59138 h -1.80134 V 120.6 q 1.04772,-0.40439 1.87487,-1.37858 0.84553,-0.99258 1.56239,-2.77554 z"
       style="font-size:37.6444px;line-height:1.25;font-family:'Microsoft Himalaya';-inkscape-font-specification:'Microsoft Himalaya, Normal';stroke-width:0.264583"
       id="path55987" />
    <path
       fill="#000000"
       d="m 129.03165,92.194022 c -0.35618,-0.0055 -0.88223,0.157266 -0.85483,0.52221 0.0219,0.307956 2.01103,0.22357 2.01651,-0.01151 0.011,-0.340285 -0.77263,-0.507415 -1.16168,-0.510702 z m -4.08782,2.300902 c -0.87674,0.391247 -1.81321,0.884414 -2.51077,1.552931 -1.84226,1.923354 -3.07518,4.816605 -2.78037,9.457865 0.89044,1.23292 4.18973,2.01103 5.9213,2.28501 2.8001,-1.20552 11.3045,-2.48228 14.52653,-1.211 -0.0767,-2.61379 -0.75619,-5.78651 -2.47132,-8.323579 -1.07401,-1.961712 -2.75078,-3.397379 -4.92619,-4.155761 -2.49872,-0.794549 -5.31526,-0.717833 -7.75918,0.394534 z m 1.66033,14.249266 c 1.69321,2.52063 3.40834,4.54262 5.95638,5.56731 0.14247,0.0274 0.36165,0.0603 0.537,-0.0712 2.1261,-1.60553 8.04412,-1.84116 11.64972,-0.81098 0.19727,0.0548 0.38906,-0.24659 0.27946,-0.44933 -0.95346,-1.73705 -2.02198,-3.49054 -4.10973,-4.93168 -4.31796,-1.78637 -10.4716,-0.42742 -14.31283,0.69591 z"
       id="path56075"
       style="stroke-width:0.0547964" />
  </g>
</svg>
