<?xml version="1.0" encoding="UTF-8" standalone="no"?>
<!-- Created with Inkscape (http://www.inkscape.org/) -->

<svg
   width="210mm"
   height="297mm"
   viewBox="0 0 210 297"
   version="1.1"
   id="svg5"
   inkscape:version="1.1 (c68e22c387, 2021-05-23)"
   sodipodi:docname="Lift-Legit-Logo-Big.svg"
   xmlns:inkscape="http://www.inkscape.org/namespaces/inkscape"
   xmlns:sodipodi="http://sodipodi.sourceforge.net/DTD/sodipodi-0.dtd"
   xmlns="http://www.w3.org/2000/svg"
   xmlns:svg="http://www.w3.org/2000/svg">
  <sodipodi:namedview
     id="namedview7"
     pagecolor="#ffffff"
     bordercolor="#666666"
     borderopacity="1.0"
     inkscape:pageshadow="2"
     inkscape:pageopacity="0.0"
     inkscape:pagecheckerboard="0"
     inkscape:document-units="mm"
     showgrid="false"
     showguides="false"
     inkscape:snap-global="false"
     inkscape:zoom="0.47118628"
     inkscape:cx="-303.48931"
     inkscape:cy="525.26997"
     inkscape:window-width="1920"
     inkscape:window-height="1017"
     inkscape:window-x="1272"
     inkscape:window-y="1072"
     inkscape:window-maximized="1"
     inkscape:current-layer="layer1" />
  <defs
     id="defs2" />
  <g
     inkscape:label="Layer 1"
     inkscape:groupmode="layer"
     id="layer1">
    <text
       xml:space="preserve"
       style="font-style:normal;font-variant:normal;font-weight:normal;font-stretch:normal;font-size:37.6444px;line-height:1.25;font-family:Buckerley;-inkscape-font-specification:Buckerley;stroke-width:0.264583"
       x="43.676468"
       y="82.588234"
       id="text1156"><tspan
         sodipodi:role="line"
         id="tspan1154"
         style="font-style:normal;font-variant:normal;font-weight:normal;font-stretch:normal;font-family:Buckerley;-inkscape-font-specification:Buckerley;stroke-width:0.264583"
         x="43.676468"
         y="82.588234" /></text>
    <text
       xml:space="preserve"
       style="font-style:normal;font-variant:normal;font-weight:normal;font-stretch:normal;font-size:37.6444px;line-height:1.25;font-family:Buckerley;-inkscape-font-specification:Buckerley;stroke-width:0.264583"
       x="35.735294"
       y="65.117645"
       id="text11914"><tspan
         sodipodi:role="line"
         id="tspan11912"
         style="font-style:normal;font-variant:normal;font-weight:normal;font-stretch:normal;font-family:Buckerley;-inkscape-font-specification:Buckerley;stroke-width:0.264583"
         x="35.735294"
         y="65.117645" /></text>
    <path
       d="m 36.365123,136.87729 0.813852,0.14794 -2.885478,9.13733 H 8.2502096 v -0.92483 h 1.2947659 q 2.0716245,0 3.0334495,-1.36876 0.517907,-0.81384 0.517907,-3.66232 v -21.71508 q 0,-3.10744 -0.702873,-3.92129 -0.961824,-1.10981 -2.8484835,-1.10981 H 8.2502096 v -0.92482 H 23.491453 v 0.92482 q -1.368752,0 -2.293587,0.14793 -0.887839,0.11085 -1.479731,0.36993 -0.591894,0.22198 -0.924833,0.55491 -0.332941,0.33292 -0.5549,0.73986 -0.369934,0.73986 -0.369934,3.81032 v 21.12316 q 0,1.7387 0.258955,2.51555 0.258952,0.77684 1.035811,1.07281 0.66588,0.22196 3.884298,0.22196 h 2.441559 q 3.884298,0 5.438015,-0.55491 0.77686,-0.25895 1.479733,-0.73986 0.702873,-0.48091 1.368752,-1.25779 0.665879,-0.77684 1.294766,-1.88665 0.628886,-1.10979 1.294766,-2.70051 z"
       style="font-size:37.6444px;line-height:1.25;font-family:'Microsoft Himalaya';-inkscape-font-specification:'Microsoft Himalaya, Normal';stroke-width:0.532493"
       id="path55971"
       inkscape:export-filename="C:\Users\idan\Desktop\Lift-Legit.png"
       inkscape:export-xdpi="96"
       inkscape:export-ydpi="96" />
    <path
       d="m 47.685074,122.78285 v 18.2377 q 0,1.62771 0.184956,2.51555 0.184956,0.85084 0.591894,1.25777 0.443918,0.36994 1.072803,0.44391 0.665882,0.037 1.590714,0.037 v 0.88785 H 40.101436 v -0.88785 q 1.146793,0 1.812672,-0.14793 0.702873,-0.18495 1.072807,-0.66588 0.369932,-0.48089 0.443917,-1.29475 0.110978,-0.85086 0.110978,-2.14562 v -8.73043 q 0,-2.14561 -0.07397,-3.40337 -0.07397,-1.25777 -0.258952,-1.84968 -0.184956,-0.62889 -0.554902,-0.77686 -0.332937,-0.18496 -0.887838,-0.18496 -0.369934,0 -0.776859,0.11087 -0.369933,0.074 -0.887841,0.25895 l -0.369931,-0.88783 6.843761,-2.77451 z M 45.613449,110.908 q 1.072805,0 1.775678,0.73987 0.739866,0.70287 0.739866,1.77568 0,1.0358 -0.739866,1.77568 -0.702873,0.73988 -1.775678,0.73988 -1.072806,0 -1.812671,-0.73988 -0.702873,-0.73988 -0.702873,-1.77568 0,-1.07281 0.702873,-1.77568 0.739865,-0.73987 1.812671,-0.73987 z"
       style="font-size:37.6444px;line-height:1.25;font-family:'Microsoft Himalaya';-inkscape-font-specification:'Microsoft Himalaya, Normal';stroke-width:0.532493"
       id="path55973"
       inkscape:export-filename="C:\Users\idan\Desktop\Lift-Legit.png"
       inkscape:export-xdpi="96"
       inkscape:export-ydpi="96" />
    <path
       d="m 62.815336,125.2614 v 14.90831 q 0,1.77568 0.221958,2.8115 0.258952,1.03581 0.665873,1.5537 0.443926,0.48093 0.998831,0.6289 0.591892,0.11085 1.257774,0.11085 h 2.034619 v 0.88786 H 54.454848 v -0.88786 h 0.99882 q 0.887838,0 1.479731,-0.22193 0.628887,-0.25896 0.998818,-0.85087 0.406928,-0.59187 0.591894,-1.5537 0.184956,-0.99882 0.184956,-2.47855 V 125.2613 h -4.402202 v -1.81267 h 4.402202 v -1.47973 q 0,-2.44155 0.665879,-4.4392 0.66588,-2.03464 1.88666,-3.47737 1.220778,-1.47974 2.959463,-2.2566 1.775676,-0.81386 3.958289,-0.81386 0.961828,0 2.034634,0.33295 1.109794,0.29594 2.034634,0.85085 0.924825,0.55489 1.516717,1.33177 0.62888,0.77685 0.62888,1.66467 0,0.73988 -0.62888,1.40576 -0.62888,0.62888 -1.405739,0.62888 -0.295946,0 -0.591892,-0.074 -0.258958,-0.074 -0.591907,-0.29594 -0.332933,-0.22197 -0.702869,-0.62889 -0.369922,-0.44392 -0.850836,-1.14679 -0.961828,-1.36875 -1.7017,-1.81266 -0.739872,-0.48093 -1.701685,-0.48093 -1.146796,0 -1.960644,0.62889 -0.776865,0.5919 -1.109806,1.88667 -0.33294,1.22078 -0.33294,6.5478 v 1.62771 h 5.844947 v 1.81267 z"
       style="font-size:37.6444px;line-height:1.25;font-family:'Microsoft Himalaya';-inkscape-font-specification:'Microsoft Himalaya, Normal';stroke-width:0.532493"
       id="path55975"
       inkscape:export-filename="C:\Users\idan\Desktop\Lift-Legit.png"
       inkscape:export-xdpi="96"
       inkscape:export-ydpi="96" />
    <path
       d="m 77.427687,116.01309 v 7.43564 h 5.290053 v 1.73869 h -5.290053 v 14.72334 q 0,1.10979 0.147966,1.84967 0.184982,0.73985 0.480914,1.14679 0.332948,0.40692 0.739872,0.59189 0.406923,0.14793 0.887837,0.14793 0.85085,0 1.590708,-0.48094 0.77686,-0.5179 1.183783,-1.51672 h 0.961828 q -0.850835,2.44156 -2.441557,3.66233 -1.590707,1.2208 -3.292407,1.2208 -1.960644,0 -3.144428,-1.36877 -1.183784,-1.36875 -1.183784,-4.69814 v -15.27824 h -3.625341 v -0.81385 q 2.108624,-0.81386 3.773322,-2.7745 1.701685,-1.99763 3.144427,-5.58599 z"
       style="font-size:37.6444px;line-height:1.25;font-family:'Microsoft Himalaya';-inkscape-font-specification:'Microsoft Himalaya, Normal';stroke-width:0.532493"
       id="path55977"
       inkscape:export-filename="C:\Users\idan\Desktop\Lift-Legit.png"
       inkscape:export-xdpi="96"
       inkscape:export-ydpi="96" />
    <path
       d="m 125.14906,136.87729 0.81384,0.14794 -2.88547,9.13733 H 97.034151 v -0.92483 h 1.294762 q 2.071607,0 3.033447,-1.36876 0.51792,-0.81384 0.51792,-3.66232 v -21.71508 q 0,-3.10744 -0.70287,-3.92129 -0.96184,-1.10981 -2.848497,-1.10981 h -1.294762 v -0.92482 h 15.241239 v 0.92482 q -1.36877,0 -2.29358,0.14793 -0.88785,0.11085 -1.47973,0.36993 -0.5919,0.22198 -0.92484,0.55491 -0.33294,0.33292 -0.55491,0.73986 -0.36993,0.73986 -0.36993,3.81032 v 21.12316 q 0,1.7387 0.25896,2.51555 0.25895,0.77684 1.03582,1.07281 0.66588,0.22196 3.88428,0.22196 h 2.44156 q 3.8843,0 5.43804,-0.55491 0.77685,-0.25895 1.47972,-0.73986 0.70287,-0.48091 1.36875,-1.25779 0.66589,-0.77684 1.29475,-1.88665 0.6289,-1.10979 1.29478,-2.70051 z"
       style="font-size:37.6444px;line-height:1.25;font-family:'Microsoft Himalaya';-inkscape-font-specification:'Microsoft Himalaya, Normal';fill:#000000;stroke-width:0.532493"
       id="path55979"
       inkscape:export-filename="C:\Users\idan\Desktop\Lift-Legit.png"
       inkscape:export-xdpi="96"
       inkscape:export-ydpi="96" />
    <path
       d="m 132.43674,131.99418 q 0,2.55254 0.66589,4.55018 0.70287,1.99764 1.81266,3.40339 1.14679,1.40575 2.62652,2.1456 1.51673,0.73988 3.18142,0.73988 2.21961,0 3.84731,-1.22077 1.6647,-1.22079 2.77449,-4.21723 l 0.77687,0.48089 q -0.25895,1.6647 -1.0358,3.29243 -0.77688,1.59069 -1.99765,2.88547 -1.18378,1.25776 -2.7745,2.03463 -1.59072,0.77685 -3.47738,0.77685 -2.03463,0 -3.84729,-0.81387 -1.77568,-0.85084 -3.14443,-2.36755 -1.33176,-1.55373 -2.14561,-3.69933 -0.77687,-2.18261 -0.77687,-4.88313 0,-2.92246 0.81385,-5.21605 0.81385,-2.29358 2.21959,-3.8843 1.40576,-1.59071 3.29242,-2.40457 1.92365,-0.81385 4.14326,-0.81385 1.88664,0 3.47737,0.66588 1.5907,0.6289 2.73748,1.84967 1.1838,1.1838 1.84968,2.88547 0.66588,1.7017 0.66588,3.81031 z m 0,-1.40574 h 10.5061 q -0.18495,-3.14443 -1.51674,-4.58717 -1.29474,-1.47973 -3.40337,-1.47973 -0.99882,0 -1.96065,0.40693 -0.96183,0.40692 -1.73868,1.18379 -0.73988,0.77686 -1.25777,1.92364 -0.51791,1.1098 -0.62889,2.55254 z"
       style="font-size:37.6444px;line-height:1.25;font-family:'Microsoft Himalaya';-inkscape-font-specification:'Microsoft Himalaya, Normal';stroke-width:0.532493"
       id="path55981"
       inkscape:export-filename="C:\Users\idan\Desktop\Lift-Legit.png"
       inkscape:export-xdpi="96"
       inkscape:export-ydpi="96" />
    <path
       d="m 157.22227,137.87612 q -2.10863,-1.03581 -3.21842,-2.8115 -1.10983,-1.81265 -1.10983,-4.03226 0,-1.70169 0.66589,-3.18141 0.70288,-1.51675 1.88668,-2.62654 1.22078,-1.14678 2.88548,-1.77568 1.66468,-0.66588 3.62533,-0.66588 3.25542,0 5.62297,1.59073 h 4.80915 q 0.5549,0 0.85083,0.037 0.29594,0 0.40695,0.037 0.14792,0 0.14792,0.074 0.037,0.037 0.074,0.11086 0.11086,0.18495 0.11086,0.48092 0.037,0.29595 0.037,0.70287 0,0.5179 -0.25897,0.66588 -0.22197,0.11087 -1.36875,0.11087 h -2.95946 q 1.40575,1.84966 1.40575,4.58716 0,1.55373 -0.62889,2.95947 -0.62889,1.36875 -1.81267,2.44155 -1.14681,1.03582 -2.8115,1.66472 -1.6647,0.59188 -3.69933,0.59188 -0.85084,0 -1.73869,-0.11085 -0.85083,-0.11086 -1.7017,-0.36993 -1.10979,0.9618 -1.47973,1.66467 -0.36992,0.66588 -0.36992,1.18381 0,0.40692 0.14793,0.66588 0.14791,0.25894 0.70286,0.44391 0.5549,0.18496 1.62772,0.29595 1.10978,0.11087 2.99647,0.14793 2.55252,0.074 4.18024,0.18495 1.66469,0.11086 2.44153,0.18495 2.33059,0.29595 3.66237,1.70171 1.36875,1.36875 1.36875,3.40338 0,1.84967 -1.07282,3.44039 -1.03581,1.62769 -2.81149,2.81149 -1.77567,1.22075 -4.06926,1.92364 -2.29359,0.70287 -4.73514,0.70287 -1.7017,0 -3.47737,-0.36993 -1.77568,-0.36994 -3.21842,-0.99882 -1.44275,-0.62889 -2.36756,-1.51672 -0.88786,-0.85087 -0.88786,-1.84966 0,-0.55491 0.11086,-1.03582 0.14792,-0.48093 0.59187,-1.14679 0.48094,-0.66588 1.36877,-1.6647 0.92485,-0.96183 2.44156,-2.55256 -1.29477,-0.77684 -1.81267,-1.36875 -0.51793,-0.62886 -0.51793,-1.40573 0,-0.44392 0.11087,-0.92483 0.14792,-0.48093 0.55487,-1.07281 0.40695,-0.62889 1.1838,-1.44272 0.81384,-0.81388 2.10862,-1.88668 z m -0.25896,8.2865 q -2.33059,2.55254 -2.33059,4.36522 0,0.85084 0.66588,1.51672 0.70289,0.66588 1.84967,1.1098 1.1838,0.48092 2.73749,0.73987 1.55374,0.25896 3.32942,0.25896 2.25658,0 3.8843,-0.44394 1.62771,-0.44391 2.70051,-1.18377 1.07281,-0.70288 1.59071,-1.59072 0.51791,-0.85085 0.51791,-1.73869 0,-0.62888 -0.25896,-1.0728 -0.25895,-0.44392 -0.99882,-0.73988 -0.70287,-0.29594 -1.96066,-0.4439 -1.22076,-0.14793 -3.1444,-0.22198 -5.51201,-0.11085 -8.58246,-0.55489 z m 4.58717,-22.19598 q -1.81268,0 -3.07046,1.47974 -1.25775,1.44274 -1.25775,4.47618 0,1.6647 0.33293,3.10743 0.33295,1.40574 0.96181,2.44157 0.66588,1.03581 1.55374,1.62771 0.92484,0.55492 2.1086,0.55492 1.88666,0 3.10746,-1.40576 1.22076,-1.40577 1.22076,-4.47619 0,-1.66471 -0.33294,-3.07045 -0.33294,-1.44274 -0.96181,-2.47855 -0.62889,-1.07281 -1.55373,-1.66471 -0.92485,-0.59189 -2.10861,-0.59189 z"
       style="font-size:37.6444px;line-height:1.25;font-family:'Microsoft Himalaya';-inkscape-font-specification:'Microsoft Himalaya, Normal';stroke-width:0.532493"
       id="path55983"
       inkscape:export-filename="C:\Users\idan\Desktop\Lift-Legit.png"
       inkscape:export-xdpi="96"
       inkscape:export-ydpi="96" />
    <path
       d="m 184.37534,122.78285 v 18.2377 q 0,1.62771 0.18496,2.51555 0.18496,0.85084 0.59189,1.25777 0.44392,0.36994 1.07281,0.44391 0.66588,0.037 1.5907,0.037 v 0.88785 h -11.024 v -0.88785 q 1.14679,0 1.81267,-0.14793 0.70288,-0.18495 1.07282,-0.66588 0.36992,-0.48089 0.4439,-1.29475 0.11087,-0.85086 0.11087,-2.14562 v -8.73043 q 0,-2.14561 -0.074,-3.40337 -0.074,-1.25777 -0.25896,-1.84968 -0.18495,-0.62889 -0.55491,-0.77686 -0.33294,-0.18496 -0.88781,-0.18496 -0.36995,0 -0.77687,0.11087 -0.36995,0.074 -0.88785,0.25895 l -0.36993,-0.88783 6.84376,-2.77451 z M 182.30371,110.908 q 1.07281,0 1.77568,0.73987 0.73987,0.70287 0.73987,1.77568 0,1.0358 -0.73987,1.77568 -0.70287,0.73988 -1.77568,0.73988 -1.07281,0 -1.81266,-0.73988 -0.70287,-0.73988 -0.70287,-1.77568 0,-1.07281 0.70287,-1.77568 0.73985,-0.73987 1.81266,-0.73987 z"
       style="font-size:37.6444px;line-height:1.25;font-family:'Microsoft Himalaya';-inkscape-font-specification:'Microsoft Himalaya, Normal';stroke-width:0.532493"
       id="path55985"
       inkscape:export-filename="C:\Users\idan\Desktop\Lift-Legit.png"
       inkscape:export-xdpi="96"
       inkscape:export-ydpi="96" />
    <path
       d="m 197.21203,116.01309 v 7.43564 h 5.29004 v 1.73869 h -5.29004 v 14.72334 q 0,1.10979 0.14792,1.84967 0.18495,0.73985 0.48093,1.14679 0.33293,0.40692 0.73985,0.59189 0.40692,0.14793 0.88784,0.14793 0.85086,0 1.59072,-0.48094 0.77685,-0.5179 1.18378,-1.51672 h 0.96184 q -0.85085,2.44156 -2.44157,3.66233 -1.5907,1.2208 -3.29239,1.2208 -1.96065,0 -3.14444,-1.36877 -1.1838,-1.36875 -1.1838,-4.69814 v -15.27824 h -3.62533 v -0.81385 q 2.10862,-0.81386 3.77332,-2.7745 1.7017,-1.99763 3.14444,-5.58599 z"
       style="font-size:37.6444px;line-height:1.25;font-family:'Microsoft Himalaya';-inkscape-font-specification:'Microsoft Himalaya, Normal';stroke-width:0.532493"
       id="path55987"
       inkscape:export-filename="C:\Users\idan\Desktop\Lift-Legit.png"
       inkscape:export-xdpi="96"
       inkscape:export-ydpi="96" />
    <path
       fill="#000000"
       d="m 142.2762,67.20427 c -0.71685,-0.01105 -1.77556,0.316511 -1.72041,1.05099 0.044,0.619785 4.04735,0.449951 4.05837,-0.02316 0.0222,-0.684849 -1.55497,-1.021211 -2.33796,-1.02783 z m -8.22706,4.630745 c -1.7645,0.787415 -3.64923,1.779952 -5.05313,3.125396 -3.70768,3.870898 -6.18903,9.693787 -5.59571,19.034695 1.79208,2.481346 8.43217,4.047345 11.91709,4.598756 5.63542,-2.426211 22.75119,-4.995788 29.23577,-2.437237 -0.15436,-5.260452 -1.52189,-11.645793 -4.97372,-16.751852 -2.16153,-3.948093 -5.53617,-6.837485 -9.91434,-8.363788 -5.02887,-1.599092 -10.69738,-1.444695 -15.61596,0.79403 z m 3.34154,28.677755 c 3.40772,5.07297 6.85956,9.14238 11.98768,11.20466 0.28674,0.0551 0.72785,0.12132 1.08076,-0.1433 4.27894,-3.23124 16.18941,-3.70547 23.44596,-1.63214 0.39704,0.11027 0.78302,-0.4963 0.56244,-0.90433 -1.91891,-3.49595 -4.06938,-7.02498 -8.27116,-9.92538 -8.69022,-3.595209 -21.07489,-0.860226 -28.80568,1.40056 z"
       id="path56075"
       style="stroke-width:0.110282"
       inkscape:export-filename="C:\Users\idan\Desktop\Lift-Legit.png"
       inkscape:export-xdpi="96"
       inkscape:export-ydpi="96" />
  </g>
</svg>
